<svg width="512" height="512" viewBox="0 0 512 512" xmlns="http://www.w3.org/2000/svg">
  <defs>
    <linearGradient id="bg" x1="0" y1="0" x2="1" y2="1">
      <stop offset="0" stop-color="#5B7CFA"/>
      <stop offset="1" stop-color="#8A5CF6"/>
    </linearGradient>
    <linearGradient id="keyhl" x1="0" y1="0" x2="0" y2="1">
      <stop offset="0" stop-color="#FFFFFF"/>
      <stop offset="1" stop-color="#E9EDFF"/>
    </linearGradient>
  </defs>
  <rect width="512" height="512" rx="116" fill="url(#bg)"/>
  <!-- keyboard body -->
  <rect x="86" y="146" width="340" height="220" rx="36" fill="#FFFFFF" opacity="0.22"/>
  <rect x="94" y="154" width="324" height="204" rx="30" fill="#FFFFFF" opacity="0.30"/>
  <!-- small keys -->
  <g fill="#FFFFFF" opacity="0.85">
    <rect x="118" y="178" width="40" height="34" rx="9"/>
    <rect x="168" y="178" width="40" height="34" rx="9"/>
    <rect x="218" y="178" width="40" height="34" rx="9"/>
    <rect x="268" y="178" width="40" height="34" rx="9"/>
    <rect x="318" y="178" width="40" height="34" rx="9"/>
    <rect x="118" y="224" width="40" height="34" rx="9"/>
    <rect x="318" y="224" width="40" height="34" rx="9"/>
    <rect x="118" y="270" width="40" height="34" rx="9"/>
    <rect x="168" y="270" width="40" height="34" rx="9"/>
    <rect x="268" y="270" width="40" height="34" rx="9"/>
    <rect x="318" y="270" width="40" height="34" rx="9"/>
  </g>
  <!-- highlighted X key -->
  <rect x="212" y="216" width="72" height="62" rx="14" fill="url(#keyhl)"/>
  <text x="248" y="262" font-family="-apple-system, 'Helvetica Neue', Arial, sans-serif" font-size="44" font-weight="700" fill="#6A5CF6" text-anchor="middle">X</text>
  <!-- space bar -->
  <rect x="168" y="316" width="140" height="30" rx="12" fill="#FFFFFF" opacity="0.85"/>
</svg>
